<svg width="162" height="24" viewBox="0 0 162 24" fill="none" xmlns="http://www.w3.org/2000/svg">
<path d="M20 6L9 17L4 12" stroke="#3485FF" stroke-width="2" stroke-linecap="round" stroke-linejoin="round"/>
<path d="M38.5859 18L34.75 7.89062H34.6875C34.7083 8.10417 34.7266 8.36458 34.7422 8.67188C34.7578 8.97917 34.7708 9.3151 34.7812 9.67969C34.7917 10.0391 34.7969 10.4062 34.7969 10.7812V18H33.5625V6.57812H35.5312L39.1484 16.0781H39.2031L42.875 6.57812H44.8281V18H43.5156V10.6875C43.5156 10.349 43.5208 10.0104 43.5312 9.67188C43.5417 9.32812 43.5547 9.00521 43.5703 8.70312C43.5859 8.39583 43.6016 8.13021 43.6172 7.90625H43.5547L39.6719 18H38.5859ZM50.9609 9.29688C51.9818 9.29688 52.7396 9.52604 53.2344 9.98438C53.7292 10.4427 53.9766 11.1745 53.9766 12.1797V18H53.0312L52.7812 16.7344H52.7188C52.4792 17.0469 52.2292 17.3099 51.9688 17.5234C51.7083 17.7318 51.4062 17.8906 51.0625 18C50.724 18.1042 50.3073 18.1562 49.8125 18.1562C49.2917 18.1562 48.8281 18.0651 48.4219 17.8828C48.0208 17.7005 47.7031 17.4245 47.4688 17.0547C47.2396 16.6849 47.125 16.2161 47.125 15.6484C47.125 14.7943 47.4635 14.138 48.1406 13.6797C48.8177 13.2214 49.849 12.9714 51.2344 12.9297L52.7109 12.8672V12.3438C52.7109 11.6042 52.5521 11.0859 52.2344 10.7891C51.9167 10.4922 51.4688 10.3438 50.8906 10.3438C50.4427 10.3438 50.0156 10.4089 49.6094 10.5391C49.2031 10.6693 48.8177 10.8229 48.4531 11L48.0547 10.0156C48.4401 9.81771 48.8828 9.64844 49.3828 9.50781C49.8828 9.36719 50.4089 9.29688 50.9609 9.29688ZM52.6953 13.7812L51.3906 13.8359C50.3229 13.8776 49.5703 14.0521 49.1328 14.3594C48.6953 14.6667 48.4766 15.1016 48.4766 15.6641C48.4766 16.1536 48.625 16.5156 48.9219 16.75C49.2188 16.9844 49.612 17.1016 50.1016 17.1016C50.862 17.1016 51.4844 16.8906 51.9688 16.4688C52.4531 16.0469 52.6953 15.4141 52.6953 14.5703V13.7812ZM60.5391 9.28125C60.7109 9.28125 60.8906 9.29167 61.0781 9.3125C61.2656 9.32812 61.4323 9.35156 61.5781 9.38281L61.4141 10.5859C61.2734 10.5495 61.1172 10.5208 60.9453 10.5C60.7734 10.4792 60.612 10.4688 60.4609 10.4688C60.1172 10.4688 59.7917 10.5391 59.4844 10.6797C59.1823 10.8151 58.9167 11.013 58.6875 11.2734C58.4583 11.5286 58.2786 11.8385 58.1484 12.2031C58.0182 12.5625 57.9531 12.9635 57.9531 13.4062V18H56.6484V9.4375H57.7266L57.8672 11.0156H57.9219C58.099 10.6979 58.3125 10.4089 58.5625 10.1484C58.8125 9.88281 59.1016 9.67188 59.4297 9.51562C59.763 9.35938 60.1328 9.28125 60.5391 9.28125ZM66.625 18.1562C65.8542 18.1562 65.1745 17.9974 64.5859 17.6797C63.9974 17.362 63.5391 16.8776 63.2109 16.2266C62.8828 15.5755 62.7188 14.7552 62.7188 13.7656C62.7188 12.7292 62.8906 11.8828 63.2344 11.2266C63.5833 10.5651 64.0625 10.0755 64.6719 9.75781C65.2812 9.4401 65.974 9.28125 66.75 9.28125C67.1771 9.28125 67.5885 9.32552 67.9844 9.41406C68.3854 9.4974 68.7135 9.60417 68.9688 9.73438L68.5781 10.8203C68.3177 10.7161 68.0156 10.6224 67.6719 10.5391C67.3333 10.4557 67.0156 10.4141 66.7188 10.4141C66.125 10.4141 65.6302 10.5417 65.2344 10.7969C64.8438 11.0521 64.5495 11.4271 64.3516 11.9219C64.1589 12.4167 64.0625 13.026 64.0625 13.75C64.0625 14.4427 64.1562 15.0339 64.3438 15.5234C64.5365 16.013 64.8203 16.388 65.1953 16.6484C65.5755 16.9036 66.0495 17.0312 66.6172 17.0312C67.0703 17.0312 67.4792 16.9844 67.8438 16.8906C68.2083 16.7917 68.5391 16.6771 68.8359 16.5469V17.7031C68.5495 17.849 68.2292 17.9609 67.875 18.0391C67.526 18.1172 67.1094 18.1562 66.625 18.1562ZM74.0703 9.29688C75.0911 9.29688 75.849 9.52604 76.3438 9.98438C76.8385 10.4427 77.0859 11.1745 77.0859 12.1797V18H76.1406L75.8906 16.7344H75.8281C75.5885 17.0469 75.3385 17.3099 75.0781 17.5234C74.8177 17.7318 74.5156 17.8906 74.1719 18C73.8333 18.1042 73.4167 18.1562 72.9219 18.1562C72.401 18.1562 71.9375 18.0651 71.5312 17.8828C71.1302 17.7005 70.8125 17.4245 70.5781 17.0547C70.349 16.6849 70.2344 16.2161 70.2344 15.6484C70.2344 14.7943 70.5729 14.138 71.25 13.6797C71.9271 13.2214 72.9583 12.9714 74.3438 12.9297L75.8203 12.8672V12.3438C75.8203 11.6042 75.6615 11.0859 75.3438 10.7891C75.026 10.4922 74.5781 10.3438 74 10.3438C73.5521 10.3438 73.125 10.4089 72.7188 10.5391C72.3125 10.6693 71.9271 10.8229 71.5625 11L71.1641 10.0156C71.5495 9.81771 71.9922 9.64844 72.4922 9.50781C72.9922 9.36719 73.5182 9.29688 74.0703 9.29688ZM75.8047 13.7812L74.5 13.8359C73.4323 13.8776 72.6797 14.0521 72.2422 14.3594C71.8047 14.6667 71.5859 15.1016 71.5859 15.6641C71.5859 16.1536 71.7344 16.5156 72.0312 16.75C72.3281 16.9844 72.7214 17.1016 73.2109 17.1016C73.9714 17.1016 74.5938 16.8906 75.0781 16.4688C75.5625 16.0469 75.8047 15.4141 75.8047 14.5703V13.7812ZM83.6484 9.28125C83.8203 9.28125 84 9.29167 84.1875 9.3125C84.375 9.32812 84.5417 9.35156 84.6875 9.38281L84.5234 10.5859C84.3828 10.5495 84.2266 10.5208 84.0547 10.5C83.8828 10.4792 83.7214 10.4688 83.5703 10.4688C83.2266 10.4688 82.901 10.5391 82.5938 10.6797C82.2917 10.8151 82.026 11.013 81.7969 11.2734C81.5677 11.5286 81.388 11.8385 81.2578 12.2031C81.1276 12.5625 81.0625 12.9635 81.0625 13.4062V18H79.7578V9.4375H80.8359L80.9766 11.0156H81.0312C81.2083 10.6979 81.4219 10.4089 81.6719 10.1484C81.9219 9.88281 82.2109 9.67188 82.5391 9.51562C82.8724 9.35938 83.2422 9.28125 83.6484 9.28125ZM93.8906 18.1562C93.1198 18.1562 92.4401 17.9974 91.8516 17.6797C91.263 17.362 90.8047 16.8776 90.4766 16.2266C90.1484 15.5755 89.9844 14.7552 89.9844 13.7656C89.9844 12.7292 90.1562 11.8828 90.5 11.2266C90.849 10.5651 91.3281 10.0755 91.9375 9.75781C92.5469 9.4401 93.2396 9.28125 94.0156 9.28125C94.4427 9.28125 94.8542 9.32552 95.25 9.41406C95.651 9.4974 95.9792 9.60417 96.2344 9.73438L95.8438 10.8203C95.5833 10.7161 95.2812 10.6224 94.9375 10.5391C94.599 10.4557 94.2812 10.4141 93.9844 10.4141C93.3906 10.4141 92.8958 10.5417 92.5 10.7969C92.1094 11.0521 91.8151 11.4271 91.6172 11.9219C91.4245 12.4167 91.3281 13.026 91.3281 13.75C91.3281 14.4427 91.4219 15.0339 91.6094 15.5234C91.8021 16.013 92.0859 16.388 92.4609 16.6484C92.8411 16.9036 93.3151 17.0312 93.8828 17.0312C94.3359 17.0312 94.7448 16.9844 95.1094 16.8906C95.474 16.7917 95.8047 16.6771 96.1016 16.5469V17.7031C95.8151 17.849 95.4948 17.9609 95.1406 18.0391C94.7917 18.1172 94.375 18.1562 93.8906 18.1562ZM105.516 13.7031C105.516 14.4062 105.424 15.0339 105.242 15.5859C105.06 16.138 104.797 16.6042 104.453 16.9844C104.109 17.3646 103.693 17.6562 103.203 17.8594C102.719 18.0573 102.169 18.1562 101.555 18.1562C100.982 18.1562 100.456 18.0573 99.9766 17.8594C99.5026 17.6562 99.0911 17.3646 98.7422 16.9844C98.3984 16.6042 98.1302 16.138 97.9375 15.5859C97.75 15.0339 97.6562 14.4062 97.6562 13.7031C97.6562 12.7656 97.8151 11.9688 98.1328 11.3125C98.4505 10.651 98.9036 10.1484 99.4922 9.80469C100.086 9.45573 100.792 9.28125 101.609 9.28125C102.391 9.28125 103.073 9.45573 103.656 9.80469C104.245 10.1536 104.701 10.6589 105.023 11.3203C105.352 11.9766 105.516 12.7708 105.516 13.7031ZM99 13.7031C99 14.3906 99.0911 14.987 99.2734 15.4922C99.4557 15.9974 99.737 16.388 100.117 16.6641C100.497 16.9401 100.987 17.0781 101.586 17.0781C102.18 17.0781 102.667 16.9401 103.047 16.6641C103.432 16.388 103.716 15.9974 103.898 15.4922C104.081 14.987 104.172 14.3906 104.172 13.7031C104.172 13.0208 104.081 12.4323 103.898 11.9375C103.716 11.4375 103.435 11.0521 103.055 10.7812C102.674 10.5104 102.182 10.375 101.578 10.375C100.688 10.375 100.034 10.6693 99.6172 11.2578C99.2057 11.8464 99 12.6615 99 13.7031ZM117.055 9.28125C117.997 9.28125 118.708 9.52865 119.188 10.0234C119.667 10.513 119.906 11.3021 119.906 12.3906V18H118.625V12.4531C118.625 11.7604 118.474 11.2422 118.172 10.8984C117.875 10.5495 117.432 10.375 116.844 10.375C116.016 10.375 115.414 10.6146 115.039 11.0938C114.664 11.5729 114.477 12.2786 114.477 13.2109V18H113.188V12.4531C113.188 11.9896 113.12 11.6042 112.984 11.2969C112.854 10.9896 112.656 10.7604 112.391 10.6094C112.13 10.4531 111.799 10.375 111.398 10.375C110.831 10.375 110.375 10.4922 110.031 10.7266C109.688 10.9609 109.438 11.3099 109.281 11.7734C109.13 12.2318 109.055 12.7969 109.055 13.4688V18H107.758V9.4375H108.805L109 10.6484H109.07C109.242 10.3516 109.458 10.1016 109.719 9.89844C109.979 9.69531 110.271 9.54167 110.594 9.4375C110.917 9.33333 111.26 9.28125 111.625 9.28125C112.276 9.28125 112.82 9.40365 113.258 9.64844C113.701 9.88802 114.021 10.2552 114.219 10.75H114.289C114.57 10.2552 114.956 9.88802 115.445 9.64844C115.935 9.40365 116.471 9.28125 117.055 9.28125ZM129.953 13.7031C129.953 14.4062 129.862 15.0339 129.68 15.5859C129.497 16.138 129.234 16.6042 128.891 16.9844C128.547 17.3646 128.13 17.6562 127.641 17.8594C127.156 18.0573 126.607 18.1562 125.992 18.1562C125.419 18.1562 124.893 18.0573 124.414 17.8594C123.94 17.6562 123.529 17.3646 123.18 16.9844C122.836 16.6042 122.568 16.138 122.375 15.5859C122.188 15.0339 122.094 14.4062 122.094 13.7031C122.094 12.7656 122.253 11.9688 122.57 11.3125C122.888 10.651 123.341 10.1484 123.93 9.80469C124.523 9.45573 125.229 9.28125 126.047 9.28125C126.828 9.28125 127.51 9.45573 128.094 9.80469C128.682 10.1536 129.138 10.6589 129.461 11.3203C129.789 11.9766 129.953 12.7708 129.953 13.7031ZM123.438 13.7031C123.438 14.3906 123.529 14.987 123.711 15.4922C123.893 15.9974 124.174 16.388 124.555 16.6641C124.935 16.9401 125.424 17.0781 126.023 17.0781C126.617 17.0781 127.104 16.9401 127.484 16.6641C127.87 16.388 128.154 15.9974 128.336 15.4922C128.518 14.987 128.609 14.3906 128.609 13.7031C128.609 13.0208 128.518 12.4323 128.336 11.9375C128.154 11.4375 127.872 11.0521 127.492 10.7812C127.112 10.5104 126.62 10.375 126.016 10.375C125.125 10.375 124.471 10.6693 124.055 11.2578C123.643 11.8464 123.438 12.6615 123.438 13.7031ZM137.656 18H136.352V5.84375H137.656V18ZM141.695 9.4375V18H140.398V9.4375H141.695ZM141.062 6.23438C141.276 6.23438 141.458 6.30469 141.609 6.44531C141.766 6.58073 141.844 6.79427 141.844 7.08594C141.844 7.3724 141.766 7.58594 141.609 7.72656C141.458 7.86719 141.276 7.9375 141.062 7.9375C140.839 7.9375 140.651 7.86719 140.5 7.72656C140.354 7.58594 140.281 7.3724 140.281 7.08594C140.281 6.79427 140.354 6.58073 140.5 6.44531C140.651 6.30469 140.839 6.23438 141.062 6.23438ZM147.492 18.1562C146.409 18.1562 145.549 17.7865 144.914 17.0469C144.284 16.3073 143.969 15.2083 143.969 13.75C143.969 12.276 144.292 11.1641 144.938 10.4141C145.583 9.65885 146.443 9.28125 147.516 9.28125C147.969 9.28125 148.365 9.34115 148.703 9.46094C149.042 9.58073 149.333 9.74219 149.578 9.94531C149.823 10.1432 150.029 10.3698 150.195 10.625H150.289C150.268 10.4635 150.247 10.2422 150.227 9.96094C150.206 9.67969 150.195 9.45052 150.195 9.27344V5.84375H151.492V18H150.445L150.25 16.7812H150.195C150.034 17.0365 149.828 17.2682 149.578 17.4766C149.333 17.6849 149.039 17.8516 148.695 17.9766C148.357 18.0964 147.956 18.1562 147.492 18.1562ZM147.695 17.0781C148.612 17.0781 149.26 16.8177 149.641 16.2969C150.021 15.776 150.211 15.0026 150.211 13.9766V13.7422C150.211 12.6536 150.029 11.8177 149.664 11.2344C149.305 10.651 148.648 10.3594 147.695 10.3594C146.898 10.3594 146.302 10.6667 145.906 11.2812C145.51 11.8906 145.312 12.724 145.312 13.7812C145.312 14.8333 145.508 15.6458 145.898 16.2188C146.294 16.7917 146.893 17.0781 147.695 17.0781ZM157.445 9.29688C158.466 9.29688 159.224 9.52604 159.719 9.98438C160.214 10.4427 160.461 11.1745 160.461 12.1797V18H159.516L159.266 16.7344H159.203C158.964 17.0469 158.714 17.3099 158.453 17.5234C158.193 17.7318 157.891 17.8906 157.547 18C157.208 18.1042 156.792 18.1562 156.297 18.1562C155.776 18.1562 155.312 18.0651 154.906 17.8828C154.505 17.7005 154.188 17.4245 153.953 17.0547C153.724 16.6849 153.609 16.2161 153.609 15.6484C153.609 14.7943 153.948 14.138 154.625 13.6797C155.302 13.2214 156.333 12.9714 157.719 12.9297L159.195 12.8672V12.3438C159.195 11.6042 159.036 11.0859 158.719 10.7891C158.401 10.4922 157.953 10.3438 157.375 10.3438C156.927 10.3438 156.5 10.4089 156.094 10.5391C155.688 10.6693 155.302 10.8229 154.938 11L154.539 10.0156C154.924 9.81771 155.367 9.64844 155.867 9.50781C156.367 9.36719 156.893 9.29688 157.445 9.29688ZM159.18 13.7812L157.875 13.8359C156.807 13.8776 156.055 14.0521 155.617 14.3594C155.18 14.6667 154.961 15.1016 154.961 15.6641C154.961 16.1536 155.109 16.5156 155.406 16.75C155.703 16.9844 156.096 17.1016 156.586 17.1016C157.346 17.1016 157.969 16.8906 158.453 16.4688C158.938 16.0469 159.18 15.4141 159.18 14.5703V13.7812Z" fill="#4D5E77"/>
</svg>
