<svg width="82" height="24" viewBox="0 0 82 24" fill="none" xmlns="http://www.w3.org/2000/svg">
<path d="M3 6H5H21" stroke="#E83F5B" stroke-width="2" stroke-linecap="round" stroke-linejoin="round"/>
<path d="M8 6V4C8 3.46957 8.21071 2.96086 8.58579 2.58579C8.96086 2.21071 9.46957 2 10 2H14C14.5304 2 15.0391 2.21071 15.4142 2.58579C15.7893 2.96086 16 3.46957 16 4V6M19 6V20C19 20.5304 18.7893 21.0391 18.4142 21.4142C18.0391 21.7893 17.5304 22 17 22H7C6.46957 22 5.96086 21.7893 5.58579 21.4142C5.21071 21.0391 5 20.5304 5 20V6H19Z" stroke="#E83F5B" stroke-width="2" stroke-linecap="round" stroke-linejoin="round"/>
<path d="M39.9219 18H33.5625V6.57812H39.9219V7.75H34.8906V11.4453H39.6328V12.6016H34.8906V16.8281H39.9219V18ZM44.2969 13.6172L41.3359 9.4375H42.8203L45.0781 12.7344L47.3281 9.4375H48.7969L45.8359 13.6172L48.9609 18H47.4766L45.0781 14.5078L42.6641 18H41.1953L44.2969 13.6172ZM54.0625 18.1562C53.2917 18.1562 52.612 17.9974 52.0234 17.6797C51.4349 17.362 50.9766 16.8776 50.6484 16.2266C50.3203 15.5755 50.1562 14.7552 50.1562 13.7656C50.1562 12.7292 50.3281 11.8828 50.6719 11.2266C51.0208 10.5651 51.5 10.0755 52.1094 9.75781C52.7188 9.4401 53.4115 9.28125 54.1875 9.28125C54.6146 9.28125 55.026 9.32552 55.4219 9.41406C55.8229 9.4974 56.151 9.60417 56.4062 9.73438L56.0156 10.8203C55.7552 10.7161 55.4531 10.6224 55.1094 10.5391C54.7708 10.4557 54.4531 10.4141 54.1562 10.4141C53.5625 10.4141 53.0677 10.5417 52.6719 10.7969C52.2812 11.0521 51.987 11.4271 51.7891 11.9219C51.5964 12.4167 51.5 13.026 51.5 13.75C51.5 14.4427 51.5938 15.0339 51.7812 15.5234C51.974 16.013 52.2578 16.388 52.6328 16.6484C53.013 16.9036 53.487 17.0312 54.0547 17.0312C54.5078 17.0312 54.9167 16.9844 55.2812 16.8906C55.6458 16.7917 55.9766 16.6771 56.2734 16.5469V17.7031C55.987 17.849 55.6667 17.9609 55.3125 18.0391C54.9635 18.1172 54.5469 18.1562 54.0625 18.1562ZM59.6094 18H58.3047V5.84375H59.6094V18ZM69.4219 9.4375V18H68.3594L68.1719 16.7969H68.1016C67.9245 17.0938 67.6953 17.3438 67.4141 17.5469C67.1328 17.75 66.8151 17.901 66.4609 18C66.112 18.1042 65.7396 18.1562 65.3438 18.1562C64.6667 18.1562 64.099 18.0469 63.6406 17.8281C63.1823 17.6094 62.8359 17.2708 62.6016 16.8125C62.3724 16.3542 62.2578 15.7656 62.2578 15.0469V9.4375H63.5703V14.9531C63.5703 15.6667 63.7318 16.2005 64.0547 16.5547C64.3776 16.9036 64.8698 17.0781 65.5312 17.0781C66.1667 17.0781 66.6719 16.9583 67.0469 16.7188C67.4271 16.4792 67.7005 16.1276 67.8672 15.6641C68.0339 15.1953 68.1172 14.6224 68.1172 13.9453V9.4375H69.4219ZM73.4609 9.4375V18H72.1641V9.4375H73.4609ZM72.8281 6.23438C73.0417 6.23438 73.224 6.30469 73.375 6.44531C73.5312 6.58073 73.6094 6.79427 73.6094 7.08594C73.6094 7.3724 73.5312 7.58594 73.375 7.72656C73.224 7.86719 73.0417 7.9375 72.8281 7.9375C72.6042 7.9375 72.4167 7.86719 72.2656 7.72656C72.1198 7.58594 72.0469 7.3724 72.0469 7.08594C72.0469 6.79427 72.1198 6.58073 72.2656 6.44531C72.4167 6.30469 72.6042 6.23438 72.8281 6.23438ZM80.1016 9.28125C80.2734 9.28125 80.4531 9.29167 80.6406 9.3125C80.8281 9.32812 80.9948 9.35156 81.1406 9.38281L80.9766 10.5859C80.8359 10.5495 80.6797 10.5208 80.5078 10.5C80.3359 10.4792 80.1745 10.4688 80.0234 10.4688C79.6797 10.4688 79.3542 10.5391 79.0469 10.6797C78.7448 10.8151 78.4792 11.013 78.25 11.2734C78.0208 11.5286 77.8411 11.8385 77.7109 12.2031C77.5807 12.5625 77.5156 12.9635 77.5156 13.4062V18H76.2109V9.4375H77.2891L77.4297 11.0156H77.4844C77.6615 10.6979 77.875 10.4089 78.125 10.1484C78.375 9.88281 78.6641 9.67188 78.9922 9.51562C79.3255 9.35938 79.6953 9.28125 80.1016 9.28125Z" fill="#4D5E77"/>
</svg>
